<svg width="32" height="32" viewBox="0 0 24 24" fill="none" xmlns="http://www.w3.org/2000/svg">
  <!-- Background circle with your app's professional navy color -->
  <circle cx="12" cy="12" r="12" fill="#25235E"/>
  
  <!-- Invoice document icon in white -->
  <path d="M8 4h6a1 1 0 0 1 .7.3l2 2A1 1 0 0 1 17 7v11a1 1 0 0 1-1 1H8a1 1 0 0 1-1-1V5a1 1 0 0 1 1-1z" 
        fill="white" 
        stroke="white" 
        stroke-width="0.5"/>
  
  <!-- Document lines -->
  <line x1="10" y1="9" x2="15" y2="9" stroke="#25235E" stroke-width="0.5" stroke-linecap="round"/>
  <line x1="10" y1="11" x2="15" y2="11" stroke="#25235E" stroke-width="0.5" stroke-linecap="round"/>
  <line x1="10" y1="13" x2="13" y2="13" stroke="#25235E" stroke-width="0.5" stroke-linecap="round"/>
  
  <!-- Small dollar sign in the corner -->
  <circle cx="15.5" cy="7.5" r="1.5" fill="#10B981"/>
  <text x="15.5" y="8.2" text-anchor="middle" font-size="1.5" font-weight="bold" fill="white">$</text>
</svg>
